<svg xmlns="http://www.w3.org/2000/svg" xmlns:xlink="http://www.w3.org/1999/xlink" width="86" zoomAndPan="magnify" viewBox="0 0 64.5 64.499999" height="86" preserveAspectRatio="xMidYMid meet" version="1.0"><defs><g/><clipPath id="89ae987c80"><path d="M 0 0 L 64.003906 0 L 64.003906 64.003906 L 0 64.003906 Z M 0 0 " clip-rule="nonzero"/></clipPath><clipPath id="29f7fe6833"><path d="M 26.246094 12.011719 L 37.167969 12.011719 L 37.167969 44.953125 L 26.246094 44.953125 Z M 26.246094 12.011719 " clip-rule="nonzero"/></clipPath></defs><g clip-path="url(#89ae987c80)"><path fill="#ffffff" d="M 0 0 L 64.003906 0 L 64.003906 64.003906 L 0 64.003906 Z M 0 0 " fill-opacity="1" fill-rule="nonzero"/><path fill="#134241" d="M 0 0 L 64.003906 0 L 64.003906 64.003906 L 0 64.003906 Z M 0 0 " fill-opacity="1" fill-rule="nonzero"/></g><g fill="#faf6f5" fill-opacity="1"><g transform="translate(27.674787, 43.766743)"><g><path d="M 1.425781 -14.269531 C 1.425781 -5.367188 7.820312 0.570312 15.671875 0.570312 C 20.550781 0.570312 25.230469 -0.941406 26.628906 -3.054688 L 26.628906 -15.46875 L 24.175781 -15.46875 L 24.175781 -5.964844 C 24.175781 -2.226562 18.808594 0 15.671875 0 C 9.078125 0 3.710938 -5.707031 3.710938 -14.269531 C 3.710938 -22.835938 9.078125 -28.542969 15.671875 -28.542969 C 20.550781 -28.542969 24.71875 -25.175781 25.144531 -21.976562 C 25.144531 -21.976562 26.429688 -21.921875 26.429688 -23.546875 C 26.429688 -27.230469 20.835938 -29.113281 15.671875 -29.113281 C 7.820312 -29.113281 1.425781 -23.175781 1.425781 -14.269531 Z M 1.425781 -14.269531 "/></g></g></g><g clip-path="url(#29f7fe6833)"><path fill="#134241" d="M 26.246094 12.011719 L 37.167969 12.011719 L 37.167969 44.953125 L 26.246094 44.953125 Z M 26.246094 12.011719 " fill-opacity="1" fill-rule="nonzero"/></g><g fill="#faf6f5" fill-opacity="1"><g transform="translate(8.983643, 43.766743)"><g><path d="M 1.570312 -6.023438 C 1.570312 -2.113281 6.363281 0.570312 13.359375 0.570312 C 19.066406 0.570312 24.804688 -2.113281 24.804688 -7.933594 C 24.804688 -19.75 4.023438 -13.699219 4.023438 -21.550781 C 4.023438 -26.089844 7.449219 -28.542969 12.84375 -28.542969 C 17.582031 -28.542969 21.890625 -26.203125 22.71875 -22.234375 C 23.546875 -22.519531 23.863281 -23.234375 23.863281 -24.117188 C 23.863281 -27.742188 17.867188 -29.113281 13.328125 -29.113281 C 7.992188 -29.113281 1.996094 -26.972656 1.996094 -21.40625 C 1.996094 -10.074219 22.75 -17.8125 22.75 -7.136719 C 22.75 -2.425781 18.296875 0 13.359375 0 C 8.335938 0 3.769531 -3.140625 3.769531 -6.222656 C 3.769531 -7.105469 4.082031 -7.820312 4.910156 -8.105469 C 4.511719 -8.449219 4.082031 -8.589844 3.683594 -8.589844 C 2.570312 -8.589844 1.570312 -7.535156 1.570312 -6.023438 Z M 1.570312 -6.023438 "/></g></g></g></svg>